<svg xmlns="http://www.w3.org/2000/svg" viewBox="0 0 64 64">
  <rect width="64" height="64" rx="14" fill="#2E6B22"/>
  <path d="M21 29c-6-2-9-8-8-15 5 3 9 7 10 13" fill="none" stroke="#F4F1E6" stroke-width="4" stroke-linecap="round"/>
  <path d="M43 29c6-2 9-8 8-15-5 3-9 7-10 13" fill="none" stroke="#F4F1E6" stroke-width="4" stroke-linecap="round"/>
  <circle cx="32" cy="33" r="12" fill="#8A3B2A"/>
  <ellipse cx="32" cy="39" rx="6.5" ry="5" fill="#6E2E1F"/>
  <circle cx="27" cy="31" r="1.8" fill="#F4F1E6"/>
  <circle cx="37" cy="31" r="1.8" fill="#F4F1E6"/>
  <path d="M32 47l1.7 3.5 3.8.5-2.7 2.7.6 3.8L32 56l-3.4 1.8.6-3.8-2.7-2.7 3.8-.5z" fill="#E8901F"/>
</svg>
